HIERARCHY
ROOT Hips
{
	OFFSET 0.000000 0.000000 0.000000
	CHANNELS 6 Xposition Yposition Zposition Xrotation Yrotation Zrotation
	JOINT LeftUpLeg_virtual
	{
		OFFSET 0.000000 0.000000 0.000000
		CHANNELS 3 Xrotation Yrotation Zrotation
		JOINT LeftUpLeg
		{
			OFFSET 13.026900 -6.336304 -1.092800
			CHANNELS 3 Xrotation Yrotation Zrotation
			JOINT LeftLeg
			{
				OFFSET 0.524474 -46.096886 9.782700
				CHANNELS 3 Xrotation Yrotation Zrotation
				JOINT LeftFoot
				{
					OFFSET -0.524474 -53.427422 -12.948200
					CHANNELS 3 Xrotation Yrotation Zrotation
					JOINT LeftToeBase
					{
						OFFSET 0.192200 -14.009700 16.364100
						CHANNELS 3 Xrotation Yrotation Zrotation
						JOINT LeftToe_End
						{
							OFFSET -1.784700 -0.561700 9.474800
							CHANNELS 3 Xrotation Yrotation Zrotation
							End Site
							{
								OFFSET 0 0 0
							}
						}
					}
				}
			}
		}
	}
	JOINT RightUpLeg_virtual
	{
		OFFSET 0.000000 0.000000 0.000000
		CHANNELS 3 Xrotation Yrotation Zrotation
		JOINT RightUpLeg
		{
			OFFSET -12.883000 -6.336304 -1.092800
			CHANNELS 3 Xrotation Yrotation Zrotation
			JOINT RightLeg
			{
				OFFSET -0.524587 -46.096825 9.782800
				CHANNELS 3 Xrotation Yrotation Zrotation
				JOINT RightFoot
				{
					OFFSET 0.524587 -53.427383 -12.948300
					CHANNELS 3 Xrotation Yrotation Zrotation
					JOINT RightToeBase
					{
						OFFSET -0.192200 -14.009700 16.364100
						CHANNELS 3 Xrotation Yrotation Zrotation
						JOINT RightToe_End
						{
							OFFSET 1.784700 -0.561700 9.474800
							CHANNELS 3 Xrotation Yrotation Zrotation
							End Site
							{
								OFFSET 0 0 0
							}
						}
					}
				}
			}
		}
	}
	JOINT Spine_virtual
	{
		OFFSET 0.000000 0.000000 0.000000
		CHANNELS 3 Xrotation Yrotation Zrotation
		JOINT Spine
		{
			OFFSET 0.072000 7.257294 -0.789700
			CHANNELS 3 Xrotation Yrotation Zrotation
			JOINT Spine1
			{
				OFFSET 0.000000 12.508769 -0.658067
				CHANNELS 3 Xrotation Yrotation Zrotation
				JOINT Spine1_split
				{
					OFFSET 0.000000 12.508769 -0.658067
					CHANNELS 3 Xrotation Yrotation Zrotation
					JOINT Spine2
					{
						OFFSET 0.000000 12.508769 -0.658067
						CHANNELS 3 Xrotation Yrotation Zrotation
						JOINT Neck_virtual
						{
							OFFSET 0.000000 0.000000 0.000000
							CHANNELS 3 Xrotation Yrotation Zrotation
							JOINT Neck
							{
								OFFSET 0.000000 14.033295 7.520400
								CHANNELS 3 Xrotation Yrotation Zrotation
								JOINT Head
								{
									OFFSET 0.000000 8.198502 5.703100
									CHANNELS 3 Xrotation Yrotation Zrotation
									JOINT HeadTop_End
									{
										OFFSET 0.000000 17.760803 13.332701
										CHANNELS 3 Xrotation Yrotation Zrotation
										End Site
										{
											OFFSET 0 0 0
										}
									}
								}
							}
						}
						JOINT LeftShoulder_virtual
						{
							OFFSET 0.000000 0.000000 0.000000
							CHANNELS 3 Xrotation Yrotation Zrotation
							JOINT LeftShoulder
							{
								OFFSET 6.292450 5.785301 -0.669000
								CHANNELS 3 Xrotation Yrotation Zrotation
								JOINT LeftShoulder_split
								{
									OFFSET 6.292450 5.785301 -0.669000
									CHANNELS 3 Xrotation Yrotation Zrotation
									JOINT LeftArm
									{
										OFFSET 13.907140 -6.093903 1.965100
										CHANNELS 3 Xrotation Yrotation Zrotation
										JOINT LeftForeArm
										{
											OFFSET 34.140198 0.000000 0.000000
											CHANNELS 3 Xrotation Yrotation Zrotation
											JOINT LeftHand
											{
												OFFSET 40.960209 0.000000 0.000000
												CHANNELS 3 Xrotation Yrotation Zrotation
												End Site
												{
													OFFSET 0 0 0
												}
											}
										}
									}
								}
							}
						}
						JOINT RightShoulder_virtual
						{
							OFFSET 0.000000 0.000000 0.000000
							CHANNELS 3 Xrotation Yrotation Zrotation
							JOINT RightShoulder
							{
								OFFSET -6.292450 5.785301 -0.669000
								CHANNELS 3 Xrotation Yrotation Zrotation
								JOINT RightShoulder_split
								{
									OFFSET -6.292450 5.785301 -0.669000
									CHANNELS 3 Xrotation Yrotation Zrotation
									JOINT RightArm
									{
										OFFSET -13.907140 -6.093903 1.965100
										CHANNELS 3 Xrotation Yrotation Zrotation
										JOINT RightForeArm
										{
											OFFSET -34.140198 0.000000 0.000000
											CHANNELS 3 Xrotation Yrotation Zrotation
											JOINT RightHand
											{
												OFFSET -40.960209 0.000000 0.000000
												CHANNELS 3 Xrotation Yrotation Zrotation
												End Site
												{
													OFFSET 0 0 0
												}
											}
										}
									}
								}
							}
						}
					}
				}
			}
		}
	}
}
MOTION
Frames: 4
Frame Time: 0.03333333
0.893989 114.533737 1.312084 0.000000 0.000000 0.000000 -1.763238 6.762987 0.950317 -4.954640 7.932735 6.068709 18.246914 -0.664177 -1.886864 -14.206204 0.860027 -4.966996 -0.689327 0.128521 0.298373 0.000000 0.000000 0.000000 -2.035121 6.200358 0.470619 -3.166889 -3.099259 -7.197989 18.833728 -7.317108 3.113245 -8.130709 -19.644104 3.922673 -2.962269 -0.210383 -0.655175 0.000000 0.000000 0.000000 -1.138292 5.132729 0.044886 -1.439547 -1.756518 -2.363446 0.715596 -0.255364 1.966212 1.733958 -1.408155 -0.107079 0.000000 0.000000 0.000000 0.154341 -0.136705 1.439578 7.421123 1.655511 -0.941252 -2.918031 -0.049461 2.428661 0.000000 0.000000 0.000000 0.764493 0.287211 1.074754 6.740767 -24.931198 -5.917566 -0.479102 -2.296773 -1.790149 7.004342 5.121591 -79.710391 -2.260834 -16.348698 1.708777 0.000000 0.000000 0.000000 0.607096 0.236476 2.008087 1.981109 -5.989639 9.358663 0.861996 6.256799 -0.756617 7.114492 18.063666 72.848619 1.458220 15.074847 -0.557196 0.000000 0.000000 0.000000 
0.735945 114.496628 1.179226 0.000000 0.000000 0.000000 -1.762199 6.882552 0.963269 -4.919966 8.099510 6.073584 18.269525 -0.728513 -1.934395 -14.262988 0.818963 -4.859860 -0.690100 0.126387 0.323169 0.000000 0.000000 0.000000 -2.020974 6.242720 0.479438 -3.226761 -3.124930 -7.161991 19.010556 -7.341336 3.126827 -8.190154 -19.606739 3.880171 -2.955004 -0.201409 -0.678920 0.000000 0.000000 0.000000 -1.139102 4.965200 0.169743 -1.470709 -1.753477 -2.414084 0.667080 -0.276086 1.929502 1.670244 -1.401299 -0.097876 0.000000 0.000000 0.000000 0.162745 -0.129355 1.404839 7.531927 1.682403 -1.084714 -2.885147 0.097085 2.291709 0.000000 0.000000 0.000000 0.740703 0.272142 1.046237 6.789357 -24.933879 -5.951956 -0.443711 -2.109987 -2.020843 6.910545 4.847721 -79.842637 -2.278483 -16.551633 1.683882 0.000000 0.000000 0.000000 0.579456 0.230348 2.022214 1.953424 -5.989873 9.352548 0.751063 6.560163 -0.811358 7.310278 17.942325 72.803157 1.513788 15.024500 -0.626714 0.000000 0.000000 0.000000 
0.583281 114.443932 1.141239 0.000000 0.000000 0.000000 -1.816834 6.952584 0.981658 -4.824015 8.246011 6.075481 18.196452 -0.792771 -1.946212 -14.274347 0.830552 -4.784136 -0.715548 0.124993 0.336553 0.000000 0.000000 0.000000 -1.988078 6.207200 0.501395 -3.298019 -3.037583 -7.181639 19.243974 -7.332375 3.153714 -8.052898 -19.528115 3.968082 -3.083483 -0.184679 -0.727564 0.000000 0.000000 0.000000 -1.173580 4.941080 0.298483 -1.471915 -1.722634 -2.463453 0.584689 -0.298363 1.883422 1.577988 -1.295831 -0.004348 0.000000 0.000000 0.000000 0.156100 -0.127738 1.384635 7.555813 1.713662 -1.298129 -2.894919 0.096520 2.186449 0.000000 0.000000 0.000000 0.693652 0.270566 1.034552 6.806172 -25.004247 -6.048762 -0.494012 -1.952160 -2.247356 7.049117 4.185729 -79.753052 -2.147370 -16.715334 1.673291 0.000000 0.000000 0.000000 0.551349 0.219008 2.009222 1.892034 -5.930191 9.417428 0.819470 6.738075 -0.932475 7.268467 17.957206 72.578007 1.516095 15.069059 -0.617596 0.000000 0.000000 0.000000 
0.460768 114.397858 1.219307 0.000000 0.000000 0.000000 -1.905137 6.927160 0.990597 -4.675541 8.340107 6.079102 18.037944 -0.813009 -1.914239 -14.224642 0.882498 -4.747336 -0.739492 0.125557 0.329997 0.000000 0.000000 0.000000 -1.927054 6.157054 0.522005 -3.341606 -2.888952 -7.225507 19.448197 -7.307210 3.177414 -7.808797 -19.415991 4.110499 -3.306064 -0.157989 -0.785744 0.000000 0.000000 0.000000 -1.199207 5.041807 0.391987 -1.423144 -1.686725 -2.503529 0.478742 -0.328454 1.836130 1.547364 -1.264059 0.162953 0.000000 0.000000 0.000000 0.131704 -0.132110 1.385479 7.514901 1.780329 -1.527032 -2.923541 -0.043466 2.134272 0.000000 0.000000 0.000000 0.615658 0.274292 1.046409 6.797503 -25.127288 -6.147297 -0.578819 -1.783323 -2.484910 7.361678 3.316898 -79.403818 -1.907228 -16.842253 1.639470 0.000000 0.000000 0.000000 0.504158 0.191865 1.973502 1.802565 -5.811995 9.580877 1.034992 6.712513 -0.996856 7.049952 18.072551 72.259481 1.465420 15.292339 -0.543317 0.000000 0.000000 0.000000 
